<?xml version="1.0" standalone="no"?>
<!DOCTYPE svg PUBLIC "-//W3C//DTD SVG 20010904//EN"
 "http://www.w3.org/TR/2001/REC-SVG-20010904/DTD/svg10.dtd">
<svg version="1.0" xmlns="http://www.w3.org/2000/svg"
 width="150.000000pt" height="150.000000pt" viewBox="0 0 150.000000 150.000000"
 preserveAspectRatio="xMidYMid meet">
<metadata>
Created by potrace 1.14, written by Peter Selinger 2001-2017
</metadata>
<g transform="translate(0.000000,150.000000) scale(0.100000,-0.100000)"
fill="#000000" stroke="none">
<path d="M165 1325 c-17 -16 -25 -35 -25 -57 0 -30 23 -56 235 -268 129 -129
235 -239 235 -245 0 -6 -106 -116 -235 -245 -212 -212 -235 -238 -235 -268 0
-44 38 -82 81 -82 29 0 61 29 302 268 151 149 275 281 283 300 12 28 12 36 0
60 -8 15 -135 147 -283 295 -241 238 -273 267 -302 267 -21 0 -41 -9 -56 -25z"/>
<path d="M692 1343 c-22 -9 -44 -63 -37 -92 4 -16 97 -117 241 -261 l234 -235
-235 -235 c-155 -155 -236 -243 -240 -261 -13 -57 42 -111 102 -101 13 2 141
120 303 280 274 271 280 278 281 317 0 39 -6 46 -283 318 -265 259 -285 277
-318 276 -19 0 -41 -3 -48 -6z"/>
</g>
</svg>
